<svg xmlns="http://www.w3.org/2000/svg" width="136" height="29.808" viewBox="0 0 136 29.808">
  <g id="Group_170" data-name="Group 170" transform="translate(-2979.192 -2576.37)">
    <circle id="Ellipse_79" data-name="Ellipse 79" cx="3.565" cy="3.565" r="3.565" transform="translate(3108.061 2598.65)" fill="#fff"/>
    <g id="Group_106" data-name="Group 106" transform="translate(2979.192 2576.37)">
      <path id="Path_397" data-name="Path 397" d="M3001.091,2593.813h-6.518a2.385,2.385,0,0,0-1.729.676,2.448,2.448,0,0,0,0,3.418,2.382,2.382,0,0,0,1.729.676h3.736v5.149a11.261,11.261,0,0,1-1.987.495,16.067,16.067,0,0,1-2.624.239,8.894,8.894,0,0,1-4.709-1.292,9.551,9.551,0,0,1-3.378-3.478,9.747,9.747,0,0,1,0-9.558,9.611,9.611,0,0,1,3.378-3.458,8.9,8.9,0,0,1,4.709-1.292,11.193,11.193,0,0,1,2.345.238,10.9,10.9,0,0,1,2.106.676,2.973,2.973,0,0,0,.656.239,2.815,2.815,0,0,0,.656.08,2.035,2.035,0,0,0,1.629-.755,2.583,2.583,0,0,0,.636-1.709,2.229,2.229,0,0,0-.3-1.093,2.153,2.153,0,0,0-.894-.854,12.659,12.659,0,0,0-3.219-1.192,16.3,16.3,0,0,0-3.617-.4,14.306,14.306,0,0,0-5.643,1.113,14.614,14.614,0,0,0-7.73,7.631,14.231,14.231,0,0,0,0,11.128,14.611,14.611,0,0,0,7.73,7.631,14.3,14.3,0,0,0,5.643,1.113,15.619,15.619,0,0,0,4.551-.656,17.271,17.271,0,0,0,3.995-1.769,3.389,3.389,0,0,0,.854-.834,2.168,2.168,0,0,0,.378-1.312v-8.426a2.386,2.386,0,0,0-.676-1.729A2.284,2.284,0,0,0,3001.091,2593.813Z" transform="translate(-2979.192 -2579.426)" fill="#fff"/>
      <path id="Path_398" data-name="Path 398" d="M3097.794,2607.1a10.5,10.5,0,0,0-3.2-2.285,9.047,9.047,0,0,0-3.835-.834,9.8,9.8,0,0,0-4.968,1.351,10.261,10.261,0,0,0-3.8,3.875,12.052,12.052,0,0,0-1.45,6.1,11.2,11.2,0,0,0,1.331,5.484,9.736,9.736,0,0,0,3.816,3.835,12.376,12.376,0,0,0,9.717.755,9.234,9.234,0,0,0,2.9-1.53,2.481,2.481,0,0,0,1.113-1.948,2,2,0,0,0-2.027-1.987,3.028,3.028,0,0,0-1.351.358q-.438.238-.974.576a5.277,5.277,0,0,1-1.411.576,9.256,9.256,0,0,1-2.345.238,6.146,6.146,0,0,1-6.042-5.008h13.117a2.53,2.53,0,0,0,1.669-.6,2.045,2.045,0,0,0,.755-1.551,10.217,10.217,0,0,0-.815-4.054A11.119,11.119,0,0,0,3097.794,2607.1Zm-11.049,2.643a4.266,4.266,0,0,1,1.788-1.073,7.532,7.532,0,0,1,2.226-.318,5.211,5.211,0,0,1,2.325.537,5.331,5.331,0,0,1,1.828,1.45,3.633,3.633,0,0,1,.815,2.067v.279h-10.414a6.891,6.891,0,0,1,.239-.914A5.206,5.206,0,0,1,3086.746,2609.742Z" transform="translate(-3052.095 -2596.229)" fill="#fff"/>
      <path id="Path_399" data-name="Path 399" d="M3181.445,2604.655a3.04,3.04,0,0,0-2.007-.676,8.486,8.486,0,0,0-1.987.238,7.138,7.138,0,0,0-1.868.735,6.728,6.728,0,0,0-1.57,1.232,6.092,6.092,0,0,0-.854,1.155v-.539a2.386,2.386,0,0,0-.676-1.729,2.448,2.448,0,0,0-3.418,0,2.384,2.384,0,0,0-.676,1.729v16.414a2.381,2.381,0,0,0,.676,1.729,2.447,2.447,0,0,0,3.418,0,2.383,2.383,0,0,0,.676-1.729V2613.8a7.347,7.347,0,0,1,.378-2.484,5.534,5.534,0,0,1,.994-1.769,3.989,3.989,0,0,1,1.351-1.053,3.46,3.46,0,0,1,1.451-.338,3.405,3.405,0,0,1,1.411.278,3.283,3.283,0,0,0,1.371.278,2.222,2.222,0,0,0,1.471-.576,2.358,2.358,0,0,0,.676-1.888A2.017,2.017,0,0,0,3181.445,2604.655Z" transform="translate(-3115.279 -2596.229)" fill="#fff"/>
      <path id="Path_400" data-name="Path 400" d="M3244.291,2603.979a2.282,2.282,0,0,0-1.709.7,2.381,2.381,0,0,0-.676,1.729v.058a9.611,9.611,0,0,0-.775-.655,9.4,9.4,0,0,0-2.484-1.311,9.19,9.19,0,0,0-3.14-.517,8.757,8.757,0,0,0-4.849,1.411,10.038,10.038,0,0,0-3.478,3.895,13.324,13.324,0,0,0,0,11.446,9.914,9.914,0,0,0,3.518,3.9,9.082,9.082,0,0,0,4.968,1.411,7.744,7.744,0,0,0,2.8-.5,9.26,9.26,0,0,0,2.246-1.212,8.372,8.372,0,0,0,1.194-1.071,2.371,2.371,0,0,0,.674,1.687,2.447,2.447,0,0,0,3.418,0,2.383,2.383,0,0,0,.676-1.729V2606.4a2.367,2.367,0,0,0-.676-1.749A2.318,2.318,0,0,0,3244.291,2603.979Zm-2.921,14.427a5.9,5.9,0,0,1-2.047,2.385,5.385,5.385,0,0,1-3.06.875,5.315,5.315,0,0,1-3.021-.875,5.893,5.893,0,0,1-2.047-2.385,7.6,7.6,0,0,1-.735-3.378,7.7,7.7,0,0,1,.735-3.418,5.9,5.9,0,0,1,2.047-2.385,5.323,5.323,0,0,1,3.021-.874,5.392,5.392,0,0,1,3.06.874,5.91,5.91,0,0,1,2.047,2.385,7.714,7.714,0,0,1,.735,3.418A7.614,7.614,0,0,1,3241.369,2618.406Z" transform="translate(-3156.638 -2596.229)" fill="#fff"/>
      <path id="Path_401" data-name="Path 401" d="M3320.361,2576.37a2.377,2.377,0,0,0-2.425,2.425v24.562a2.38,2.38,0,0,0,.676,1.729,2.233,2.233,0,0,0,1.669.7,2.376,2.376,0,0,0,2.424-2.425v-24.562a2.424,2.424,0,0,0-.656-1.729A2.22,2.22,0,0,0,3320.361,2576.37Z" transform="translate(-3222.847 -2576.37)" fill="#fff"/>
      <path id="Path_402" data-name="Path 402" d="M3369.014,2577.046a2.317,2.317,0,0,0-1.709-.676,2.284,2.284,0,0,0-1.709.7,2.384,2.384,0,0,0-.676,1.729v7.808a9.615,9.615,0,0,0-.775-.654,9.392,9.392,0,0,0-2.484-1.312,9.2,9.2,0,0,0-3.14-.517,8.758,8.758,0,0,0-4.849,1.411,10.038,10.038,0,0,0-3.478,3.895,13.327,13.327,0,0,0,0,11.447,9.918,9.918,0,0,0,3.517,3.895,9.085,9.085,0,0,0,4.968,1.411,7.747,7.747,0,0,0,2.8-.5,9.272,9.272,0,0,0,2.245-1.212,8.4,8.4,0,0,0,1.194-1.071,2.374,2.374,0,0,0,.674,1.687,2.447,2.447,0,0,0,3.418,0,2.381,2.381,0,0,0,.676-1.729v-24.562A2.366,2.366,0,0,0,3369.014,2577.046Zm-4.63,21.5a5.9,5.9,0,0,1-2.047,2.385,5.383,5.383,0,0,1-3.06.875,5.313,5.313,0,0,1-3.021-.875,5.9,5.9,0,0,1-2.047-2.385,7.609,7.609,0,0,1-.735-3.378,7.707,7.707,0,0,1,.735-3.418,5.9,5.9,0,0,1,2.047-2.385,5.32,5.32,0,0,1,3.021-.875,5.39,5.39,0,0,1,3.06.875,5.909,5.909,0,0,1,2.047,2.385,7.717,7.717,0,0,1,.735,3.418A7.619,7.619,0,0,1,3364.384,2598.547Z" transform="translate(-3245.122 -2576.37)" fill="#fff"/>
    </g>
  </g>
</svg>
